<svg width="16" height="16" viewBox="0 0 16 16" fill="none" xmlns="http://www.w3.org/2000/svg">
<path d="M1.043 3.12854L12.8705 14.9541C13.4466 15.5301 14.3805 15.5301 14.9565 14.9541C15.5325 14.3782 15.5325 13.4444 14.9565 12.8685L3.12898 1.04289C2.55295 0.466961 1.61902 0.466961 1.043 1.0429C0.466967 1.61883 0.466966 2.5526 1.043 3.12854Z" fill="#99A3AF"/>
<path d="M3.12947 14.9571L14.957 3.13151C15.533 2.55557 15.533 1.6218 14.957 1.04586C14.381 0.469928 13.4471 0.469928 12.871 1.04586L1.04348 12.8715C0.467452 13.4474 0.467452 14.3812 1.04348 14.9571C1.61951 15.533 2.55344 15.533 3.12947 14.9571Z" fill="#99A3AF"/>
</svg>
