<svg width="13" height="13" viewBox="0 0 13 13" fill="none" xmlns="http://www.w3.org/2000/svg">
<path d="M6.5 0C2.912 0 0 2.912 0 6.5C0 10.088 2.912 13 6.5 13C10.088 13 13 10.088 13 6.5C13 2.912 10.088 0 6.5 0ZM6.5 0.83278C9.62845 0.83278 12.1673 3.37155 12.1673 6.5C12.1673 9.62845 9.62845 12.1673 6.5 12.1673C3.37155 12.1673 0.83278 9.62845 0.83278 6.5C0.83278 3.37155 3.37155 0.83278 6.5 0.83278ZM6.59555 2.21403C6.2413 2.21598 5.90311 2.26193 5.60222 2.34812C5.29678 2.43561 5.00903 2.57458 4.76528 2.75236C4.55481 2.90589 4.35363 3.10277 4.20062 3.30687C3.93029 3.66756 3.78066 4.06419 3.74153 4.52153C3.73893 4.55195 3.73698 4.57795 3.7375 4.57847C3.73854 4.57951 5.14813 4.75312 5.15528 4.75312C5.15872 4.75312 5.16262 4.73792 5.17361 4.69222C5.29978 4.1667 5.5302 3.81335 5.88653 3.59937C6.16733 3.43076 6.52405 3.36459 6.9121 3.40639C7.0902 3.42556 7.25075 3.46879 7.3918 3.53639C7.56795 3.62095 7.7285 3.75485 7.8429 3.91423C7.943 4.05438 8.0028 4.21219 8.02165 4.38951C8.02685 4.43885 8.0249 4.55071 8.0197 4.59875C8.00475 4.71744 7.9742 4.81832 7.9222 4.92173C7.86955 5.02554 7.826 5.08514 7.7428 5.16951C7.61085 5.30452 7.4061 5.4834 7.0421 5.78097C6.8081 5.97233 6.6495 6.11611 6.5143 6.25826C6.19301 6.5949 6.04688 6.84775 5.95764 7.215C5.89881 7.4568 5.876 7.70575 5.8825 8.07235C5.88412 8.16335 5.88653 8.2498 5.88653 8.2654V8.29335H7.2904L7.29235 8.13735C7.2943 7.9248 7.306 7.7883 7.32875 7.6557C7.3658 7.44315 7.4217 7.3307 7.58485 7.14805C7.68885 7.03105 7.82535 6.90365 8.0353 6.7275C8.34535 6.46808 8.56245 6.27315 8.7672 6.06937C9.08635 5.75042 9.2521 5.53247 9.3704 5.27722C9.46335 5.07624 9.5147 4.87643 9.5303 4.65764C9.5342 4.6046 9.53485 4.46069 9.5303 4.39972C9.50105 3.94193 9.3288 3.53827 9.00055 3.16264C8.94855 3.10355 8.81985 2.97498 8.75875 2.92097C8.43635 2.63536 8.0639 2.44303 7.61735 2.32986C7.345 2.26083 7.0824 2.22586 6.7496 2.21611C6.6989 2.21462 6.64625 2.21377 6.59555 2.21403ZM5.88653 8.94803V10.378H7.3164V8.94803H5.88653Z" fill="#0860C7"/>
</svg>
